<svg aria-label="TOPDISK — Memory and More" role="img" viewBox="0 0 1048 336" version="1.1" xmlns="http://www.w3.org/2000/svg" ><path fill="rgb(255,255,255)" stroke="rgb(255,255,255)" stroke-width="0" opacity="0" d="M 0 0 L 1047.5 0 L 1048 0.5 L 1048 336 L 0.5 336 L 0 335.5 L 0 0 Z M 174 95 L 171 99 L 171 114 L 168 121 L 168 124 L 167 125 Q 167 128 170 129 L 285 129 L 286 128 L 286 125 L 285 124 L 284 120 L 277 110 L 271 104 L 267 103 L 263 99 L 256 99 L 252 96 Q 249 97 249 95 L 174 95 Z M 170 150 Q 169 152 166 151 L 163 155 L 163 168 L 162 169 L 162 176 L 160 180 L 160 184 L 159 185 L 159 196 Q 157 196 158 201 L 157 202 L 157 206 L 156 207 L 156 213 L 155 214 L 155 225 L 154 226 L 154 230 Q 153 230 153 233 L 152 234 L 152 236 L 153 238 L 156 239 L 185 239 L 187 238 L 189 235 L 189 222 L 190 221 L 190 214 L 192 210 L 192 206 L 193 205 L 193 195 L 194 194 L 194 189 Q 196 188 195 184 L 196 183 L 196 177 L 197 176 L 197 165 L 198 164 L 198 161 Q 200 160 199 158 L 200 157 L 200 154 L 198 151 Q 195 152 195 150 L 170 150 Z M 225 150 Q 224 152 222 151 L 219 154 L 219 164 L 218 165 L 218 170 Q 216 170 217 175 L 216 176 L 216 182 L 215 183 L 215 194 Q 213 194 214 198 L 213 199 L 213 202 L 212 203 L 212 209 L 211 210 L 211 225 L 208 232 Q 207 238 211 239 L 219 239 Q 220 237 224 238 L 225 237 L 238 237 L 244 233 L 248 233 L 250 232 L 259 226 L 273 212 Q 274 207 277 206 L 278 202 L 281 198 L 281 194 L 284 191 Q 284 188 285 188 L 285 180 L 289 172 L 289 158 L 290 157 L 289 151 L 287 150 L 225 150 Z M 321 151 L 317 156 Q 318 159 316 160 L 316 164 L 315 165 L 315 171 L 319 173 L 345 173 L 346 175 L 343 180 L 343 190 L 342 191 L 342 196 L 340 200 L 340 203 L 339 204 L 339 212 L 338 213 L 338 217 Q 336 217 337 221 L 336 222 L 336 226 L 335 227 L 335 238 L 337 239 Q 339 239 340 240 L 341 239 L 352 239 L 354 238 L 356 235 Q 355 231 357 231 L 357 222 Q 359 221 358 218 L 360 215 L 360 210 L 361 209 L 361 198 L 364 192 Q 363 187 365 187 L 365 173 L 368 172 L 370 173 L 393 173 Q 393 171 396 172 Q 395 169 397 169 L 397 165 L 398 164 L 398 161 L 400 157 L 400 154 L 397 151 L 321 151 Z M 430 151 Q 429 153 426 152 L 423 154 L 421 154 L 420 155 L 416 155 L 412 159 L 410 159 L 405 164 L 403 164 L 403 166 L 396 174 L 394 180 L 392 182 Q 393 184 391 185 L 391 192 L 388 198 L 388 203 L 387 204 L 387 211 L 388 212 L 388 217 L 391 222 L 391 225 L 392 227 L 399 233 L 405 237 L 413 237 Q 413 239 417 238 L 418 239 L 434 239 L 438 237 L 448 237 L 451 234 L 455 233 L 459 229 L 460 229 L 461 227 L 464 225 Q 466 225 465 222 L 468 220 L 469 219 L 469 216 L 473 209 L 473 206 Q 475 205 474 203 L 476 200 L 476 190 L 477 189 L 477 174 L 473 165 L 468 159 L 467 159 L 465 157 L 464 155 L 461 155 Q 460 154 458 154 L 452 151 L 430 151 Z M 489 151 L 486 155 L 486 157 L 483 163 L 483 172 L 482 173 L 482 179 Q 480 179 481 183 L 480 184 L 480 189 L 479 190 L 479 196 L 477 200 Q 478 203 476 205 L 476 211 L 475 212 L 475 217 L 474 218 L 474 222 Q 473 222 473 225 L 472 226 L 472 231 L 471 232 L 471 236 L 474 239 L 489 239 L 491 238 L 493 235 L 493 229 L 494 228 L 494 224 Q 496 223 495 220 L 496 219 L 496 214 L 497 213 L 497 207 L 499 205 Q 502 204 503 206 L 505 205 L 531 205 L 538 201 L 540 201 L 541 199 L 544 197 L 549 192 L 552 186 Q 552 183 553 183 L 553 180 L 554 179 L 554 167 Q 552 166 553 163 L 549 159 L 549 158 L 547 155 L 544 155 L 537 151 L 489 151 Z M 565 151 L 563 152 L 560 155 Q 561 158 559 159 L 559 166 L 558 167 L 558 172 L 556 176 L 556 184 Q 554 185 555 189 L 554 190 L 554 194 L 552 198 L 552 203 L 551 204 L 551 214 Q 549 214 550 218 L 548 221 L 548 225 L 547 226 L 547 237 L 548 239 L 588 239 L 592 237 L 602 237 L 603 236 Q 605 237 604 235 L 606 233 L 611 232 L 612 231 Q 611 228 614 229 L 621 222 Q 621 216 625 215 L 625 211 L 628 207 Q 628 204 629 204 L 629 198 Q 631 197 630 194 L 631 193 L 631 175 Q 629 174 630 171 L 629 170 L 629 167 L 625 163 L 625 162 L 622 159 L 620 157 L 619 155 L 615 155 L 610 152 Q 606 153 606 151 L 565 151 Z M 644 151 L 642 152 L 640 154 Q 641 157 639 158 L 639 165 L 638 166 L 638 171 Q 636 171 637 175 L 636 176 L 636 182 L 635 183 L 635 189 L 634 190 L 634 193 Q 633 193 633 196 L 632 197 L 632 206 L 631 207 L 631 212 Q 629 212 630 217 L 627 223 L 627 237 L 628 239 L 640 239 L 641 240 Q 641 239 644 239 L 647 236 Q 647 233 648 233 Q 647 228 649 228 L 649 221 L 650 220 L 650 215 L 652 211 L 652 208 L 653 207 L 653 199 Q 655 198 654 194 L 655 193 L 655 189 L 656 188 L 656 182 L 657 181 L 657 175 L 659 171 L 660 164 L 661 163 L 661 154 L 659 151 L 644 151 Z M 688 151 L 682 154 L 680 154 L 679 155 L 675 156 L 671 160 L 670 160 L 667 163 L 667 165 L 663 169 L 663 172 L 660 179 L 660 190 L 663 196 L 669 201 L 672 202 L 676 205 L 709 205 L 711 208 L 711 215 L 710 216 Q 707 215 708 218 L 707 219 L 655 219 L 652 223 L 652 230 L 651 231 L 651 238 L 653 239 Q 655 239 656 240 L 658 239 L 703 239 L 707 237 L 715 237 L 716 236 Q 718 237 717 234 L 723 232 Q 725 231 725 228 L 729 224 L 730 219 L 732 216 L 732 212 L 733 211 L 733 199 L 729 193 L 723 187 L 720 187 L 714 184 L 685 184 L 683 183 Q 680 182 681 178 L 686 173 L 687 173 Q 688 171 689 173 L 737 173 L 739 172 L 740 171 L 740 165 L 741 164 L 741 159 L 742 158 L 743 154 L 741 151 L 688 151 Z M 750 151 L 747 152 L 744 160 Q 745 163 743 165 L 743 173 L 742 174 L 742 179 L 740 182 Q 741 185 739 186 L 739 194 L 738 195 L 738 200 Q 736 201 737 205 L 736 206 L 736 213 L 735 214 L 735 218 Q 733 218 734 222 L 732 226 L 732 230 L 731 231 L 731 236 L 734 239 L 749 239 L 751 238 L 753 235 L 753 228 Q 755 227 754 223 Q 756 222 755 219 L 757 217 L 762 217 L 766 221 L 770 221 L 774 225 L 777 225 L 783 229 L 785 229 L 790 233 L 793 233 L 795 234 L 798 237 L 804 237 L 805 236 L 805 232 Q 807 231 806 229 L 808 227 Q 808 224 809 224 L 809 217 Q 808 214 804 215 L 799 211 L 796 211 L 790 207 L 787 207 L 781 203 L 778 203 L 773 199 L 768 199 L 764 196 L 764 195 L 766 193 L 772 193 L 778 189 L 782 189 L 789 185 L 792 185 L 799 181 L 804 181 L 809 177 L 814 177 L 816 176 L 817 174 L 817 170 L 820 163 L 820 159 L 821 158 L 821 156 L 819 152 L 817 152 L 813 155 L 809 155 L 804 159 L 799 159 L 798 160 Q 795 159 796 162 L 794 163 L 790 163 L 784 167 L 781 167 L 774 171 L 771 171 L 768 174 L 763 174 L 763 173 L 765 170 L 765 153 L 764 151 L 750 151 Z M 326 248 L 324 249 L 320 255 Q 321 258 319 259 L 319 267 Q 317 267 318 271 L 317 272 L 317 275 Q 318 278 324 277 L 326 275 L 326 270 Q 328 269 327 266 L 328 265 L 328 262 L 331 262 L 331 265 L 335 271 L 336 275 L 338 276 Q 340 276 341 277 L 344 276 L 345 274 L 348 272 L 354 265 Q 353 262 356 263 Q 356 261 357 263 L 357 267 L 355 271 L 355 275 Q 357 279 364 277 L 367 274 L 367 270 Q 369 269 368 266 L 369 265 L 369 256 L 370 255 L 370 252 L 369 249 L 367 248 L 362 248 L 358 250 L 355 253 Q 356 255 354 254 L 349 260 Q 346 259 347 262 L 344 265 L 343 265 L 341 264 L 341 262 Q 338 258 336 253 L 333 249 Q 330 250 330 248 L 326 248 Z M 654 248 L 652 249 Q 649 250 649 254 L 648 255 L 636 255 Q 633 259 628 260 L 627 263 L 627 272 L 634 277 L 644 277 L 647 275 L 651 277 L 655 277 L 657 276 L 657 264 L 658 263 L 658 260 Q 660 259 659 257 L 660 256 L 660 252 L 659 249 L 657 248 L 654 248 Z M 686 248 L 684 249 L 681 252 L 680 254 L 680 257 L 679 258 L 679 266 L 678 267 L 678 271 L 677 272 L 677 276 L 680 277 L 684 277 L 686 274 L 686 269 L 688 265 L 688 262 L 691 262 L 692 268 Q 695 270 696 275 L 698 276 Q 700 276 701 277 L 704 276 L 705 274 Q 706 272 708 272 L 708 271 L 714 265 Q 713 262 716 263 Q 716 261 717 263 L 717 267 L 715 271 Q 714 276 718 277 Q 722 278 725 276 L 726 275 Q 726 272 727 272 L 728 265 L 729 264 L 729 256 L 730 255 L 730 252 L 729 249 L 727 248 L 722 248 L 718 250 L 709 260 Q 706 259 707 262 L 704 265 L 703 265 L 701 264 L 700 260 L 697 257 L 696 253 L 691 248 L 686 248 Z M 383 255 L 379 259 L 377 259 L 372 265 L 372 269 L 373 271 L 382 277 L 397 277 L 400 273 L 400 270 Q 399 269 399 267 L 403 264 L 402 260 L 398 255 L 383 255 Z M 409 255 L 407 257 L 407 265 Q 405 265 406 269 L 404 272 Q 403 276 406 277 L 412 277 L 414 276 L 415 274 L 415 269 L 417 266 L 417 264 L 418 261 Q 422 260 423 263 Q 424 265 422 266 L 422 271 L 420 274 L 421 276 L 424 277 L 428 277 L 430 276 L 431 275 Q 431 272 432 272 L 432 269 L 434 265 L 434 263 L 436 261 Q 439 261 439 263 Q 440 266 438 267 L 438 272 L 437 273 L 437 275 L 440 277 L 446 277 L 448 276 L 449 274 L 449 264 L 450 263 L 449 261 L 449 258 L 447 255 L 436 255 L 433 258 L 432 258 L 429 255 L 419 255 L 418 256 Q 415 254 409 255 Z M 463 255 L 462 256 Q 459 255 460 258 L 457 259 L 454 262 L 453 266 L 452 267 L 453 271 L 461 277 L 474 277 L 480 273 L 482 271 L 484 267 L 484 262 L 477 255 L 463 255 Z M 492 255 L 489 258 Q 490 261 488 263 L 488 268 L 487 269 L 487 275 Q 488 278 495 277 L 497 275 Q 496 271 498 271 L 498 267 L 500 264 L 503 261 L 512 261 L 513 259 L 512 257 L 511 255 L 492 255 Z M 517 255 L 514 258 L 513 265 L 512 266 L 512 271 Q 513 273 515 272 L 515 275 L 514 275 L 511 278 L 511 280 L 513 281 L 517 282 L 520 284 L 527 284 L 530 282 L 535 281 L 537 279 L 538 274 L 540 271 L 540 266 L 541 265 L 541 257 L 540 255 L 533 255 L 531 257 L 531 262 L 530 263 L 530 265 L 529 267 Q 527 267 526 269 L 523 269 Q 522 266 524 266 L 524 263 L 525 262 L 525 258 Q 524 254 517 255 Z M 569 255 Q 567 258 563 259 L 559 264 L 559 271 L 567 277 L 577 277 L 581 275 L 584 277 Q 589 278 590 275 Q 591 271 589 271 Q 588 267 590 267 L 590 261 Q 592 260 591 258 L 589 255 L 569 255 Z M 599 255 L 596 259 L 596 264 L 595 265 L 595 271 Q 593 271 594 275 Q 596 279 603 277 L 605 275 L 605 267 L 610 261 L 613 262 L 613 264 L 611 267 L 611 276 L 614 277 L 619 277 L 621 275 L 622 266 L 623 265 L 623 261 L 620 255 L 609 255 L 607 257 L 604 255 L 599 255 Z M 742 255 L 738 259 L 737 259 L 732 265 L 732 270 L 735 273 Q 737 272 736 275 L 738 275 L 741 277 L 754 277 Q 756 273 761 272 L 761 271 L 764 266 L 763 262 L 756 255 L 742 255 Z M 772 255 L 769 256 L 768 259 L 768 266 L 767 267 L 767 275 Q 768 278 775 277 L 777 275 L 777 268 L 780 265 L 780 264 L 783 261 L 791 261 Q 792 264 790 265 L 790 269 L 795 274 Q 797 273 796 276 L 799 277 L 815 277 L 817 275 Q 817 272 818 272 L 816 269 L 816 266 L 820 265 L 821 263 L 820 259 L 819 259 L 815 255 L 801 255 L 800 256 Q 797 255 798 258 L 797 259 L 792 259 Q 793 256 790 255 L 780 255 L 779 256 L 778 255 L 772 255 Z " /><path fill="rgb(255,255,255)" stroke="rgb(255,255,255)" stroke-width="0" opacity="0" d="M 507.5 172 L 508.5 173 L 527.5 173 Q 528.5 171 529.5 173 L 532 174.5 Q 531.5 177 533 177.5 L 532 178.5 L 532 180.5 L 531 183 L 528.5 184 L 502.5 184 Q 500.25 183.25 501 179.5 L 502 178.5 L 503 174.5 L 504.5 173 Q 507 173.5 507.5 172 Z " /><path fill="rgb(255,255,255)" stroke="rgb(255,255,255)" stroke-width="0" opacity="0" d="M 422.5 173 L 450.5 173 L 452 174.5 L 452 175.5 L 455 178.5 L 455 198.5 L 452 203.5 Q 452.5 206 451 206.5 L 451 209.5 L 449.5 211 Q 447.25 210.25 448 212.5 Q 446 215.75 442 216 Q 443.13 218.67 440.5 218 L 439.5 219 L 417.5 219 L 413.5 215 L 412 215 L 412 213.5 L 410 211.5 Q 410.5 209 409 208.5 L 409 198.5 L 410 197.5 L 410 193.5 Q 411.5 193 411 190.5 L 413 187.5 L 413 183.5 Q 416.65 181.35 417 177 L 418.5 177 L 422.5 173 Z " /><path fill="rgb(255,255,255)" stroke="rgb(255,255,255)" stroke-width="0" opacity="0" d="M 578 173 L 605.5 173 L 607 174.5 L 611 182.5 L 611 190.5 L 610 191.5 L 610 194.5 L 607 200.5 L 607 206.5 L 600.5 215 L 598.5 215 L 596 216 Q 597.13 218.67 594.5 218 L 593.5 219 L 570 219 L 570 215.5 L 572 212.5 Q 571.25 209.25 573 208.5 L 573 200.5 L 574 199.5 L 574 195.5 L 575 194.5 Q 574.25 191.25 576 190.5 L 576 185.5 L 577 184.5 L 577 175.5 L 578 173 Z " /><path fill="rgb(255,255,255)" stroke="rgb(255,255,255)" stroke-width="0" opacity="0" d="M 386.5 261 Q 391 260 392 262.5 L 389.5 264 L 386.5 264 Q 383.5 262.5 386.5 261 Z " /><path fill="rgb(255,255,255)" stroke="rgb(255,255,255)" stroke-width="0" opacity="0" d="M 466.5 261 L 469.5 261 Q 470 262.5 472.5 262 L 474 263.5 L 474 265.5 L 469.5 271 L 466.5 271 L 463 268.5 L 463 265.5 L 466.5 261 Z " /><path fill="rgb(255,255,255)" stroke="rgb(255,255,255)" stroke-width="0" opacity="0" d="M 574.5 261 L 577.5 261 L 580 262.5 Q 578.25 263.25 579 266.5 L 575.5 270 L 571.5 271 Q 568.25 270.25 569 265.5 L 571.5 262 Q 574 262.5 574.5 261 Z " /><path fill="rgb(255,255,255)" stroke="rgb(255,255,255)" stroke-width="0" opacity="0" d="M 642.5 261 Q 646.25 260.25 647 262.5 Q 648 267 645.5 268 L 644 268 Q 645.13 270.67 642.5 270 Q 642 271.5 639.5 271 L 637 270 L 637 264.5 L 638 262 L 641.5 262 L 642.5 261 Z " /><path fill="rgb(255,255,255)" stroke="rgb(255,255,255)" stroke-width="0" opacity="0" d="M 746.5 261 L 749.5 261 L 753 263.5 L 753 265.5 L 751 268.5 L 751 270 L 748.5 271 L 746.5 271 Q 746 269.5 743.5 270 L 742 268.5 L 742 265.5 Q 744.5 264.5 744 262 L 746.5 261 Z " /><path fill="rgb(255,255,255)" stroke="rgb(255,255,255)" stroke-width="0" opacity="0" d="M 803.5 261 L 809.5 261 L 811 262.5 Q 808.94 264.94 803.5 264 Q 800.5 262.5 803.5 261 Z " /><path fill="rgb(255,255,255)" stroke="rgb(255,255,255)" stroke-width="0" opacity="0" d="M 386.5 268 L 389.5 268 L 390.5 269 L 395 269.5 L 393.5 271 L 385 271 Q 384.5 268.88 386.5 268 Z " /><path fill="rgb(255,255,255)" stroke="rgb(255,255,255)" stroke-width="0" opacity="0" d="M 803.5 268 L 806.5 268 L 807.5 269 L 812 269.5 L 810.5 271 L 802 271 Q 801.5 268.88 803.5 268 Z " /><path fill="rgb(255,255,255)" stroke="rgb(255,255,255)" stroke-width="0" opacity="0" d="M 521.5 277 L 524 277 L 524 280 Q 521 280.75 520 278.5 L 521.5 277 Z " /><path fill="rgb(238,27,36)" stroke="rgb(238,27,36)" stroke-width="0" opacity="1" d="M 173.5 95 L 248.5 95 Q 249 96.5 251.5 96 L 255.5 99 L 262.5 99 L 266.5 103 L 270.5 104 L 277 109.5 L 277 110.5 L 281 114.5 L 285 122.5 L 284 122.5 L 283 119.5 L 280 116.5 L 280 115.5 L 270.5 105 L 268 105.5 L 275 111.5 L 275 112.5 L 279 116.5 L 280 119.5 L 283 122.5 L 283.5 127 L 285.5 124 L 286 127.5 L 284.5 129 L 169.5 129 Q 167.38 127.63 167 124.5 L 168 123.5 L 168 120.5 L 171 113.5 L 171 98.5 L 173.5 95 Z M 175 96 L 172 99 L 174 106 L 174 106 L 174 100 L 177 97 L 245 97 L 245 97 L 245 96 L 175 96 Z M 247 97 L 247 98 L 251 100 Q 253 100 254 101 L 260 101 L 264 104 L 265 104 L 264 101 L 262 100 L 255 100 L 251 97 L 247 97 Z M 266 104 L 266 105 L 268 105 L 266 104 Z M 173 106 L 172 107 L 172 115 L 170 119 L 170 122 L 169 123 Q 168 127 171 128 L 283 128 L 283 128 L 283 127 L 172 127 L 170 126 L 172 123 Q 171 118 173 118 L 173 107 L 173 106 Z " /><path fill="rgb(245,245,245)" stroke="rgb(245,245,245)" stroke-width="0" opacity="1" d="M 171.5 153 L 173.5 154 L 190.5 154 Q 191 152.5 193.5 153 Q 195.75 153.75 195 157.5 L 194 158.5 L 194 169.5 L 191 175.5 L 191 183.5 Q 189.5 184 190 186.5 Q 192 187.5 190 188.5 L 190 200.5 L 187 205.5 L 187 211.5 L 186 212.5 L 186 231.5 L 185 234 L 182.5 235 L 178.5 235 Q 178 233.5 175.5 234 L 174.5 235 L 165.5 235 Q 165 233.5 162.5 234 Q 161.75 235.75 158.5 235 Q 156.25 234.25 157 230.5 L 158 229.5 L 158 220.5 L 161 213.5 L 161 201.5 L 162 200.5 L 162 189.5 L 165 184.5 L 165 175.5 L 166 174.5 L 166 158.5 Q 167.5 158 167 155.5 L 168.5 154 Q 171 154.5 171.5 153 Z " /><path fill="rgb(245,245,245)" stroke="rgb(245,245,245)" stroke-width="0" opacity="1" d="M 282.5 153 Q 286.25 152.25 287 154.5 Q 287.75 157.75 286 158.5 L 286 167.5 L 282 175.5 L 282 184.5 L 279 188.5 L 278 195.5 L 275 198.5 Q 274.65 203.65 271 205.5 L 271 208.5 L 260.5 220 L 259 220 Q 260.13 222.67 257.5 222 L 252.5 226 L 248.5 227 L 244.5 230 L 241.5 230 Q 241 231.5 238.5 231 L 233.5 234 L 218.5 234 Q 217.75 235.75 214.5 235 Q 212.25 234.25 213 230.5 L 214 229.5 L 214 218.5 L 215 217.5 Q 214.5 215 216 214.5 L 216 210.5 L 217 209.5 L 217 201.5 L 218 200.5 L 218 189.5 L 221 182.5 L 221 173.5 L 222 172.5 L 222 157.5 Q 223.75 156.58 223 154 L 281.5 154 L 282.5 153 Z M 281 159 L 281 160 L 281 159 Z " /><path fill="rgb(245,245,245)" stroke="rgb(245,245,245)" stroke-width="0" opacity="1" d="M 322.5 154 Q 325.75 153.25 326.5 155 L 389.5 155 Q 390.25 153.25 393.5 154 Q 395.5 154.5 395 157.5 L 394 158.5 L 394 166.5 L 392.5 168 L 365.5 168 L 363 169 L 362 171.5 L 362 179.5 L 361 180.5 L 361 183.5 L 360 184.5 Q 360.5 187 359 187.5 L 359 191.5 L 358 192.5 L 358 201.5 L 355 208.5 L 355 215.5 L 354 216.5 L 354 224.5 L 351 230.5 L 352 232.5 Q 351.25 235.75 346.5 235 Q 345.75 233.25 342.5 234 L 341.5 235 L 338 235 L 338 231.5 L 341 227.5 L 341 219.5 L 342 218.5 Q 340 217.5 342 216.5 L 342 208.5 L 345 203.5 L 345 198.5 L 346 197.5 L 345 195.5 L 346 194.5 L 346 183.5 L 349 179.5 L 350 172.5 Q 348.5 172 349 169.5 L 347.5 168 L 320.5 168 Q 319.63 168.13 320 164.5 L 321 163.5 L 321 160.5 L 322 158.5 Q 320.5 158 321 155.5 L 322.5 154 Z " /><path fill="rgb(245,245,245)" stroke="rgb(245,245,245)" stroke-width="0" opacity="1" d="M 490 154 L 493.5 154 L 494.5 155 L 532.5 155 L 536.5 157 L 540.5 157 Q 541.25 158.75 544.5 158 L 546 159.5 L 547 162.5 L 550 165.5 Q 549.5 168 551 168.5 L 550 169.5 L 550 182.5 L 547 185.5 L 547 188.5 L 546 191 Q 543.87 190.5 543 192.5 L 541.5 195 L 540.5 195 L 536.5 199 L 534.5 199 Q 533.5 197 532.5 199 L 531.5 199 L 528.5 202 L 496.5 202 L 494 204.5 L 494 207.5 L 491 212.5 Q 492.17 218.67 490 221.5 L 491 223.5 L 490 224.5 L 490 232.5 L 487.5 235 L 476.5 235 L 475 233.5 L 477 230.5 L 477 224.5 L 478 223.5 L 478 214.5 L 480 211.5 Q 479.5 209 481 208.5 L 481 203.5 L 482 202.5 L 482 190.5 Q 483.5 190 483 187.5 L 485 185.5 Q 484.17 180.67 486 178.5 Q 484 177.5 486 176.5 L 486 166.5 L 489 161.5 L 489 156.5 L 490 154 Z M 504 168 L 502 169 Q 498 170 499 175 Q 497 176 499 177 L 498 178 L 498 188 L 500 189 L 528 189 Q 528 186 532 187 L 537 181 L 537 174 L 534 170 L 530 168 L 504 168 Z " /><path fill="rgb(245,245,245)" stroke="rgb(245,245,245)" stroke-width="0" opacity="1" d="M 566.5 154 Q 569.75 153.25 570.5 155 L 601.5 155 L 605.5 157 L 612.5 157 Q 613.25 158.75 616.5 158 L 618 159.5 Q 617.25 161.75 619.5 161 L 622 162 Q 622.35 166.35 626 168.5 L 627 173.5 Q 625.5 174 626 176.5 L 627 177.5 L 627 188.5 L 626 189.5 L 626 202.5 L 625 205 Q 622 203.75 623 207.5 Q 621 208.5 622 212.5 L 611.5 226 L 610.5 226 L 606.5 230 L 602.5 231 L 598.5 234 L 588.5 234 L 587.5 235 L 585.5 234 L 584.5 235 L 556.5 235 L 554.5 234 L 553.5 235 L 550 235 L 550 230.5 L 552 228.5 Q 551.25 225.25 553 224.5 L 553 218.5 L 554 217.5 L 554 210.5 L 557 203.5 L 557 196.5 L 558 195.5 L 558 186.5 L 561 180.5 L 561 175.5 L 562 174.5 L 562 163.5 Q 563.5 163 563 160.5 L 565 158.5 L 565 155.5 L 566.5 154 Z M 578 168 L 574 173 L 574 180 L 571 186 L 571 192 L 570 193 L 571 195 L 570 196 L 570 204 L 567 209 L 567 215 L 566 216 L 566 219 L 569 222 L 596 222 L 601 218 L 604 217 L 606 214 Q 605 211 608 212 L 610 209 L 610 205 L 613 201 Q 612 196 614 196 L 614 179 L 609 173 L 609 171 L 607 170 L 604 170 L 601 168 L 578 168 Z " /><path fill="rgb(245,245,245)" stroke="rgb(245,245,245)" stroke-width="0" opacity="1" d="M 646.5 154 L 653.5 155 Q 654 153.5 656.5 154 Q 659.25 155.25 657 156.5 L 656 160.5 L 655 161.5 L 655 168.5 L 654 169.5 L 654 178.5 L 651 184.5 L 651 191.5 L 650 192.5 L 650 202.5 L 647 207.5 Q 648 211.5 646 212.5 L 646 227.5 Q 643.25 228.25 644 232.5 L 641.5 235 L 634.5 234 L 633.5 235 L 630 235 L 630 230.5 L 633 223.5 L 633 218.5 L 634 217.5 L 634 208.5 L 637 201.5 L 637 195.5 L 638 194.5 L 638 185.5 L 641 179.5 L 641 172.5 L 642 171.5 L 641 169.5 L 642 168.5 L 642 161.5 L 644 158.5 L 644 156.5 L 646.5 154 Z " /><path fill="rgb(245,245,245)" stroke="rgb(245,245,245)" stroke-width="0" opacity="1" d="M 735.5 154 Q 738.5 153.5 739 155.5 Q 737 158 738 163.5 Q 736.5 164 737 166.5 L 735.5 168 L 687.5 168 L 686.5 169 L 682.5 170 L 679 173.5 L 678 175.5 L 678 184.5 L 684.5 189 L 716.5 189 Q 717.25 190.75 720.5 190 L 727 194.5 L 727 198.5 L 730 201.5 L 730 210.5 L 727 214.5 L 726 217.5 Q 727.75 218.25 727 221.5 Q 725.88 224.5 723 224 L 723 225.5 L 718.5 230 Q 714.25 230.75 712.5 234 L 700.5 234 L 699.5 235 L 661.5 235 Q 661 233.5 658.5 234 L 657.5 235 L 654 235 L 654 231.5 L 657 226.5 Q 655.5 226 656 223.5 L 657.5 222 L 708.5 222 L 714 216.5 L 714 214.5 L 716 211.5 L 716 208.5 L 714 206.5 Q 714.5 203.5 712.5 203 L 710.5 202 L 677.5 202 L 674.5 199 Q 670 200 669 197.5 L 667.5 195 L 665 193.5 L 665 176.5 Q 666.5 176 666 173.5 Q 664 172.5 666 171.5 Q 664.88 168.17 667.5 169 L 672.5 162 L 676 161 Q 675.5 158.13 678.5 157 L 681.5 157 L 683.5 158 L 684.5 157 Q 687 157.5 687.5 156 L 690.5 156 L 691.5 155 L 734.5 155 L 735.5 154 Z M 672 192 L 672 193 L 672 192 Z " /><path fill="rgb(245,245,245)" stroke="rgb(245,245,245)" stroke-width="0" opacity="1" d="M 750 154 L 753.5 154 L 754.5 155 L 757.5 155 L 758.5 154 L 762 154 L 762 161.5 Q 760 162.5 761 166.5 L 759 169.5 L 759 176.5 Q 760.25 179.25 765.5 178 Q 766.5 176 770.5 177 L 772 175.5 Q 771.17 172.87 774.5 174 Q 775.5 172 779.5 173 L 783.5 170 Q 786 170.5 786.5 169 L 789.5 169 L 792.5 166 L 795.5 166 Q 796.42 164.25 799 165 Q 797.88 162.33 800.5 163 L 801.5 162 L 804.5 162 Q 805 160.5 807.5 161 L 809 159.5 Q 808.25 157.25 810.5 158 Q 811 156.5 813.5 157 L 816 158 L 816 159.5 L 814 162.5 L 814 165.5 Q 815.5 166 815 168.5 Q 813.5 169 814 171.5 L 811.5 174 L 806.5 174 L 801.5 178 L 796.5 178 Q 795.75 179.75 792.5 179 L 791 180.5 Q 791.5 182.38 790.5 182 L 784.5 182 Q 784 183.5 781.5 183 L 778.5 186 Q 776 185.5 775.5 187 L 771.5 187 L 767.5 190 L 759 191 L 759 195.5 L 763 199.5 L 763 201 L 765.5 202 L 769.5 202 L 772.5 205 Q 775 204.5 775.5 206 L 778.5 206 L 781.5 209 L 784.5 209 Q 785.42 210.75 788 210 Q 787.5 212.13 789.5 213 L 793.5 213 Q 794 214.5 796.5 214 L 800.5 218 L 801.5 218 L 802.5 217 L 806 217 L 807 219.5 L 806 222 Q 803.88 221.5 803 223.5 L 802 230.5 L 803 232.5 L 800.5 235 L 795.5 230 L 792.5 230 L 789.5 227 L 786.5 227 L 781.5 223 L 778.5 223 L 776.5 222 L 773.5 219 Q 771 219.5 770.5 218 L 767.5 218 L 764.5 215 L 760.5 214 L 756.5 211 L 752.5 211 L 751 212.5 L 751 218.5 L 750 219.5 L 750 231.5 L 749 234 L 746.5 235 L 736.5 235 L 735 232.5 L 737 229.5 L 737 223.5 L 738 222.5 L 738 213.5 L 741 208.5 L 741 201.5 L 742 200.5 L 742 189.5 L 745 185.5 L 745 180.5 L 746 179.5 L 746 164.5 L 749 160.5 L 749 156.5 L 750 154 Z M 809 168 L 809 169 L 809 168 Z " /><path fill="rgb(245,245,245)" stroke="rgb(245,245,245)" stroke-width="0" opacity="1" d="M 432.5 155 L 446.5 155 L 447.5 156 L 450.5 156 L 451.5 157 L 455.5 157 L 457.5 158 Q 458 156.5 460.5 157 L 468 163.5 L 468 164.5 L 471 167.5 L 471 173.5 L 473 176.5 Q 472 180.5 474 181.5 L 474 186.5 Q 472 187.5 473 191.5 L 471 194.5 L 471 199.5 L 470 200.5 L 470 207.5 L 467 210.5 Q 467.5 213 466 213.5 L 466 216.5 L 464.5 218 Q 461.88 217.17 463 220.5 L 452.5 230 L 447 231 Q 448.13 233.67 445.5 233 L 444.5 234 L 432.5 234 L 431.5 235 L 420.5 235 L 419.5 234 L 406.5 234 L 397 226.5 L 397 225.5 L 394 222.5 Q 394.75 219.25 393 218.5 L 393 208.5 L 392 206.5 L 393 205.5 L 393 196.5 L 394 195.5 L 394 188.5 L 397 184.5 L 397 180.5 Q 398.5 180 398 177.5 Q 402 175.25 402 170 Q 404.67 171.13 404 168.5 L 410 163.5 Q 409.25 161.25 411.5 162 Q 412 160.5 414.5 161 L 417.5 158 L 421.5 157 L 423.5 158 L 424.5 157 L 428.5 157 L 432.5 155 Z M 428 168 L 425 170 L 422 170 L 420 171 L 411 180 L 410 182 L 410 185 L 407 188 Q 408 191 406 192 L 406 213 Q 408 213 407 216 L 409 216 L 416 222 L 442 222 L 443 221 Q 445 222 444 220 L 447 217 L 449 217 L 454 212 L 454 210 L 457 206 Q 456 202 458 202 L 458 197 L 461 190 L 461 184 L 458 179 L 457 175 L 454 171 L 450 170 L 447 168 L 428 168 Z " /><path fill="rgb(245,245,245)" stroke="rgb(245,245,245)" stroke-width="0" opacity="1" d="M 326.5 253 L 329.5 253 L 334 256.5 L 335 259.5 L 338 263.5 L 339 267.5 L 340.5 269 L 343 270.5 L 341.5 273 L 338 270.5 L 337 267.5 L 334 263.5 L 333 259.5 L 330.5 257 L 325 257 L 325 254.5 L 326.5 253 Z " /><path fill="rgb(245,245,245)" stroke="rgb(245,245,245)" stroke-width="0" opacity="1" d="M 358 253 L 365.5 253 L 367 254.5 Q 367.5 257 366 257.5 L 366 262.5 L 363 268.5 L 363 271.5 L 360.5 274 Q 357.75 272.75 360 271.5 L 361 269.5 L 361 265.5 L 362 264.5 L 362 258.5 L 361 256 L 358 256 L 358 253 Z " /><path fill="rgb(245,245,245)" stroke="rgb(245,245,245)" stroke-width="0" opacity="1" d="M 653 253 Q 655.13 252.5 656 254.5 L 654 258.5 L 654 266.5 L 653 267.5 L 653 273 Q 650.33 274.13 651 271.5 L 649 269.5 L 650 268.5 Q 649 264.5 651 263.5 L 651 258.5 L 652 257.5 L 652 255.5 L 653 253 Z " /><path fill="rgb(245,245,245)" stroke="rgb(245,245,245)" stroke-width="0" opacity="1" d="M 686.5 253 L 689.5 253 L 694 256.5 L 695 259.5 L 698 263.5 L 699 267.5 L 700.5 269 L 703 270.5 L 701.5 273 L 698 270.5 L 697 267.5 L 694 263.5 L 693 259.5 L 690.5 257 L 685 257 L 685 254.5 L 686.5 253 Z " /><path fill="rgb(245,245,245)" stroke="rgb(245,245,245)" stroke-width="0" opacity="1" d="M 718 253 L 725.5 253 L 727 254.5 Q 727.5 257 726 257.5 L 726 262.5 L 723 267.5 L 723 271.5 L 720.5 274 L 719 271.5 L 721 268.5 Q 720.25 265.25 722 264.5 L 722 257.5 Q 721 255.25 718 256 L 718 253 Z " /><path fill="rgb(245,245,245)" stroke="rgb(245,245,245)" stroke-width="0" opacity="1" d="M 385 257 L 393.5 257 L 397.5 260 L 399 260 L 399 263 L 397.5 263 Q 395.5 262.13 396 260 L 393.5 259 L 385 259 L 385 257 Z " /><path fill="rgb(245,245,245)" stroke="rgb(245,245,245)" stroke-width="0" opacity="1" d="M 422 257 L 425.5 257 L 430 261.5 L 430 264.5 L 428 267.5 L 428 271.5 L 426.5 273 Q 424.63 273.5 425 272.5 L 425 267.5 L 426 266.5 L 426 261.5 L 422 258.5 L 422 257 Z " /><path fill="rgb(245,245,245)" stroke="rgb(245,245,245)" stroke-width="0" opacity="1" d="M 438 257 L 441.5 257 Q 442 258.5 444.5 258 L 446 259.5 L 446 268.5 L 445 269.5 L 445 273 Q 442 273.75 441 271.5 L 442 270.5 Q 441 265 443 262.5 L 442 260 L 438 259 L 438 257 Z " /><path fill="rgb(245,245,245)" stroke="rgb(245,245,245)" stroke-width="0" opacity="1" d="M 465.5 257 L 473.5 257 L 475 258.5 L 474.5 259 L 464.5 259 Q 463 258 465.5 257 Z " /><path fill="rgb(245,245,245)" stroke="rgb(245,245,245)" stroke-width="0" opacity="1" d="M 504 257 L 507 257 L 507 259 L 504 259 L 504 257 Z " /><path fill="rgb(245,245,245)" stroke="rgb(245,245,245)" stroke-width="0" opacity="1" d="M 518.5 257 Q 521.5 256.5 522 258.5 Q 521.5 262 519 263.5 L 519 271 Q 516.88 271.5 516 269.5 L 516 267.5 L 517 266.5 L 518 262.5 Q 516.25 261.75 517 258.5 L 518.5 257 Z " /><path fill="rgb(245,245,245)" stroke="rgb(245,245,245)" stroke-width="0" opacity="1" d="M 535.5 257 L 538 258.5 L 538 260.5 L 536 263.5 Q 536.75 266.75 535 267.5 L 535 274.5 L 531.5 279 L 529 277.5 Q 529.88 275.5 532 276 L 531 268 Q 534 269.25 533 265.5 L 534 264.5 L 534 258.5 L 535.5 257 Z " /><path fill="rgb(245,245,245)" stroke="rgb(245,245,245)" stroke-width="0" opacity="1" d="M 571.5 257 L 577.5 257 Q 578.75 256.67 578 259 L 570 258.5 L 571.5 257 Z " /><path fill="rgb(245,245,245)" stroke="rgb(245,245,245)" stroke-width="0" opacity="1" d="M 612.5 257 Q 613.5 259 614.5 257 L 616.5 257 L 619 259.5 L 619 265.5 L 618 266.5 L 618 272.5 L 616.5 274 L 614 272.5 L 615 271.5 L 615 267.5 L 616 266.5 L 617 262.5 Q 615.67 258.83 611 258.5 L 612.5 257 Z " /><path fill="rgb(245,245,245)" stroke="rgb(245,245,245)" stroke-width="0" opacity="1" d="M 639.5 257 L 645 257 L 645 259 L 637 258.5 L 639.5 257 Z " /><path fill="rgb(245,245,245)" stroke="rgb(245,245,245)" stroke-width="0" opacity="1" d="M 745.5 257 Q 752.31 255.69 755 258.5 L 754.5 259 L 743.5 259 L 743.5 258 L 745.5 257 Z " /><path fill="rgb(245,245,245)" stroke="rgb(245,245,245)" stroke-width="0" opacity="1" d="M 783 257 L 787 257 L 787 259 L 783 259 L 783 257 Z " /><path fill="rgb(245,245,245)" stroke="rgb(245,245,245)" stroke-width="0" opacity="1" d="M 803 257 L 811.5 257 L 817 261.5 Q 816.13 263.5 814 263 Q 814.5 260.12 811.5 259 L 803.5 259 Q 802.25 259.33 803 257 Z " /><path fill="rgb(245,245,245)" stroke="rgb(245,245,245)" stroke-width="0" opacity="1" d="M 410 258 L 414 258 L 414 262.5 L 412 265.5 Q 412.5 268 411 268.5 L 411 271.5 L 409.5 273 Q 407.25 273.75 408 271.5 L 409 270.5 Q 408 266.5 410 265.5 L 410 258 Z " /><path fill="rgb(245,245,245)" stroke="rgb(245,245,245)" stroke-width="0" opacity="1" d="M 493 258 Q 496 257.25 497 259.5 L 497 262.5 L 495 264.5 Q 495.5 267 494 267.5 L 494 272.5 L 492.5 274 L 490 272.5 L 491 270.5 L 491 266.5 L 493 264.5 L 493 258 Z " /><path fill="rgb(245,245,245)" stroke="rgb(245,245,245)" stroke-width="0" opacity="1" d="M 584 258 L 587 258 L 587 261.5 L 586 262.5 L 586 273 Q 583.13 273.5 582 270.5 L 582 266.5 L 584 263.5 L 584 258 Z " /><path fill="rgb(245,245,245)" stroke="rgb(245,245,245)" stroke-width="0" opacity="1" d="M 600 258 Q 603 257.25 604 259.5 Q 604.5 263 602 263.5 L 602 271.5 L 601 274 Q 598.88 274.5 598 272.5 L 599 265.5 Q 601.5 265 601 261.5 Q 599.25 260.58 600 258 Z " /><path fill="rgb(245,245,245)" stroke="rgb(245,245,245)" stroke-width="0" opacity="1" d="M 714.5 258 L 714.5 259 L 714.5 258 Z " /><path fill="rgb(245,245,245)" stroke="rgb(245,245,245)" stroke-width="0" opacity="1" d="M 772 258 L 776 258 L 776 259.5 L 777 261.5 L 774 264.5 L 774 272.5 L 772.5 274 L 770 272.5 Q 769.25 269.25 771 268.5 L 771 264.5 L 773 261.5 Q 771.25 260.58 772 258 Z " /><path fill="rgb(245,245,245)" stroke="rgb(245,245,245)" stroke-width="0" opacity="1" d="M 323.5 261 L 324 266.5 L 323 267.5 L 323 273 Q 320.67 273.75 321 272.5 L 321 266.5 L 323.5 261 Z " /><path fill="rgb(245,245,245)" stroke="rgb(245,245,245)" stroke-width="0" opacity="1" d="M 379.5 261 L 381 263.5 L 379 267.5 L 380 269.5 L 378.5 271 L 376 268.5 L 376 265.5 L 379.5 261 Z " /><path fill="rgb(245,245,245)" stroke="rgb(245,245,245)" stroke-width="0" opacity="1" d="M 459.5 261 Q 461.75 260.25 461 262.5 Q 458 263.5 459 268.5 L 460 271 Q 457.12 271.5 456 268.5 L 456 265.5 L 459.5 261 Z " /><path fill="rgb(245,245,245)" stroke="rgb(245,245,245)" stroke-width="0" opacity="1" d="M 477 261 Q 479.88 260.5 481 263.5 Q 480.55 269.05 476.5 271 L 476 268.5 L 477 267.5 L 477 261 Z " /><path fill="rgb(245,245,245)" stroke="rgb(245,245,245)" stroke-width="0" opacity="1" d="M 565.5 261 L 567 261 L 567 264.5 Q 565 265.5 566 269.5 L 567 272 Q 563.7 271.95 562 269.5 L 562 264.5 L 565.5 261 Z " /><path fill="rgb(245,245,245)" stroke="rgb(245,245,245)" stroke-width="0" opacity="1" d="M 632.5 261 L 635 261.5 L 633 264.5 L 633 271 Q 630.88 271.5 630 269.5 Q 628.5 262.5 632.5 261 Z " /><path fill="rgb(245,245,245)" stroke="rgb(245,245,245)" stroke-width="0" opacity="1" d="M 683.5 261 L 684 265.5 L 683 266.5 L 683 271.5 L 681.5 273 L 681 267.5 Q 683 266.5 682 262.5 L 683.5 261 Z " /><path fill="rgb(245,245,245)" stroke="rgb(245,245,245)" stroke-width="0" opacity="1" d="M 739.5 261 L 741 261.5 L 738 266.5 L 739 267.5 L 739 271 Q 736.88 271.5 736 269.5 L 735 266.5 L 737 263.5 L 737 262 L 739.5 261 Z " /><path fill="rgb(245,245,245)" stroke="rgb(245,245,245)" stroke-width="0" opacity="1" d="M 757.5 261 L 760 263.5 L 760 265.5 Q 758.5 266 759 268.5 L 756.5 271 Q 754.25 271.75 755 269.5 L 757 266.5 L 757.5 261 Z " /><path fill="rgb(245,245,245)" stroke="rgb(245,245,245)" stroke-width="0" opacity="1" d="M 795.5 262 Q 799.25 260.75 798 264.5 L 797 265.5 L 797 271 Q 794.12 271.5 793 268.5 L 794 263.5 L 795.5 262 Z " /><path fill="rgb(245,245,245)" stroke="rgb(245,245,245)" stroke-width="0" opacity="1" d="M 345.5 267 L 345.5 268 L 345.5 267 Z " /><path fill="rgb(245,245,245)" stroke="rgb(245,245,245)" stroke-width="0" opacity="1" d="M 705.5 267 L 705.5 268 L 705.5 267 Z " /><path fill="rgb(245,245,245)" stroke="rgb(245,245,245)" stroke-width="0" opacity="1" d="M 174.5 96 L 244.5 96 L 245 96.5 L 244.5 97 L 176.5 97 L 174 99.5 L 174 105.5 L 173 106.5 L 173 117.5 Q 171 118.5 172 122.5 L 170 125.5 L 171.5 127 L 283 127 L 283 122.5 L 272.5 109 L 271.5 109 L 267.5 105 L 265.5 105 L 259.5 101 L 253.5 101 L 246 97.5 L 250.5 97 L 254.5 100 L 261.5 100 L 264 101 Q 263.5 103.13 265.5 104 L 270.5 105 L 276 110.5 L 276 111.5 L 283 119.5 L 285 124.5 L 282.5 128 L 170.5 128 L 169 126.5 L 169 122.5 L 170 121.5 L 170 118.5 L 172 114.5 L 172 106.5 Q 174 105.5 173 101.5 Q 171.5 101 172 98.5 L 174.5 96 Z " /><path fill="rgb(245,245,245)" stroke="rgb(245,245,245)" stroke-width="0" opacity="1" d="M 169.5 150 L 194.5 150 Q 195 151.5 197.5 151 L 200 153.5 L 200 156.5 L 199 157.5 Q 199.5 160 198 160.5 L 198 163.5 L 197 164.5 L 197 175.5 L 196 176.5 L 196 182.5 L 195 183.5 Q 196 187.5 194 188.5 L 194 193.5 L 193 194.5 L 193 204.5 L 192 205.5 L 192 209.5 L 190 213.5 L 190 220.5 L 189 221.5 L 189 234.5 L 186.5 238 L 184.5 239 L 155.5 239 L 153 238 L 152 235.5 L 152 233.5 L 153 232.5 Q 152.5 230 154 229.5 L 154 225.5 L 155 224.5 L 155 213.5 L 156 212.5 L 156 206.5 L 157 205.5 L 157 201.5 L 158 200.5 Q 157 196.5 159 195.5 L 159 184.5 L 160 183.5 L 160 179.5 L 162 175.5 L 162 168.5 L 163 167.5 L 163 154.5 L 165.5 151 Q 168.75 151.75 169.5 150 Z M 172 153 Q 171 155 169 154 L 167 156 Q 168 158 166 159 L 166 175 L 165 176 L 165 185 L 162 190 L 162 201 L 161 202 L 161 214 L 158 221 L 158 230 L 157 231 Q 156 234 159 235 Q 162 236 163 234 Q 165 234 166 235 L 175 235 L 176 234 Q 178 234 179 235 L 183 235 L 185 234 L 186 232 L 186 213 L 187 212 L 187 206 L 190 201 L 190 189 Q 192 188 190 187 Q 190 184 191 184 L 191 176 L 194 170 L 194 159 L 195 158 Q 196 154 194 153 Q 191 153 191 154 L 174 154 L 172 153 Z " /><path fill="rgb(245,245,245)" stroke="rgb(245,245,245)" stroke-width="0" opacity="1" d="M 224.5 150 L 286.5 150 L 289 151 L 290 156.5 L 289 157.5 L 289 171.5 L 285 179.5 L 285 187.5 Q 283.5 188 284 190.5 L 281 193.5 L 281 197.5 L 278 201.5 L 277 205.5 Q 273.75 207.25 273 211.5 L 258.5 226 L 249.5 232 L 247.5 233 L 243.5 233 L 237.5 237 L 224.5 237 L 223.5 238 Q 219.5 237 218.5 239 L 210.5 239 Q 206.75 237.75 208 231.5 L 211 224.5 L 211 209.5 L 212 208.5 L 212 202.5 L 213 201.5 L 213 198.5 L 214 197.5 Q 213.25 194.25 215 193.5 L 215 182.5 L 216 181.5 L 216 175.5 L 217 174.5 Q 216 170.5 218 169.5 L 218 164.5 L 219 163.5 L 219 153.5 L 221.5 151 Q 224 151.5 224.5 150 Z M 283 153 L 282 154 L 223 154 Q 224 157 222 158 L 222 173 L 221 174 L 221 183 L 218 190 L 218 201 L 217 202 L 217 210 L 216 211 L 216 215 Q 215 215 215 218 L 214 219 L 214 230 L 213 231 Q 212 234 215 235 Q 218 236 219 234 L 234 234 L 239 231 Q 241 232 242 230 L 245 230 L 249 227 L 253 226 L 258 222 Q 260 223 259 220 L 261 220 L 271 209 L 271 206 Q 275 204 275 199 L 278 196 L 279 189 L 282 185 L 282 176 L 286 168 L 286 159 Q 288 158 287 155 Q 286 152 283 153 Z " /><path fill="rgb(245,245,245)" stroke="rgb(245,245,245)" stroke-width="0" opacity="1" d="M 320.5 151 L 396.5 151 L 400 153.5 L 400 156.5 L 398 160.5 L 398 163.5 L 397 164.5 L 397 168.5 Q 395.25 169.42 396 172 Q 393.42 171.25 392.5 173 L 369.5 173 L 367.5 172 L 365 173 L 365 186.5 Q 363 187.5 364 191.5 L 361 197.5 L 361 208.5 L 360 209.5 L 360 214.5 L 358 217.5 Q 358.75 220.75 357 221.5 L 357 230.5 Q 355.25 231.25 356 234.5 L 353.5 238 L 351.5 239 L 340.5 239 L 339.5 240 Q 339 238.5 336.5 239 L 335 237.5 L 335 226.5 L 336 225.5 L 336 221.5 L 337 220.5 Q 336.25 217.25 338 216.5 L 338 212.5 L 339 211.5 L 339 203.5 L 340 202.5 L 340 199.5 L 342 195.5 L 342 190.5 L 343 189.5 L 343 179.5 L 346 174.5 L 344.5 173 L 318.5 173 L 315 170.5 L 315 164.5 L 316 163.5 L 316 159.5 Q 317.75 158.75 317 155.5 L 320.5 151 Z M 323 154 L 321 156 Q 321 158 322 159 L 321 161 L 321 164 L 320 165 Q 320 168 321 168 L 348 168 L 349 170 Q 349 172 350 173 L 349 180 L 346 184 L 346 195 L 345 196 L 346 198 L 345 199 L 345 204 L 342 209 L 342 217 Q 340 218 342 219 L 341 220 L 341 228 L 338 232 L 338 235 L 342 235 L 343 234 Q 346 233 347 235 Q 351 236 352 233 L 351 231 L 354 225 L 354 217 L 355 216 L 355 209 L 358 202 L 358 193 L 359 192 L 359 188 Q 361 187 360 185 L 361 184 L 361 181 L 362 180 L 362 172 L 363 169 L 366 168 L 393 168 L 394 167 L 394 159 L 395 158 Q 396 155 394 154 Q 390 153 390 155 L 327 155 Q 326 153 323 154 Z " /><path fill="rgb(245,245,245)" stroke="rgb(245,245,245)" stroke-width="0" opacity="1" d="M 429.5 151 L 451.5 151 L 457.5 154 Q 460 153.5 460.5 155 L 463.5 155 L 465 156.5 L 466.5 159 L 467.5 159 L 473 164.5 L 477 173.5 L 477 188.5 L 476 189.5 L 476 199.5 L 474 202.5 Q 474.5 205 473 205.5 L 473 208.5 L 469 215.5 L 469 218.5 L 467.5 220 L 465 221.5 Q 465.5 224.5 463.5 225 L 461 226.5 L 459.5 229 L 458.5 229 L 454.5 233 L 450.5 234 L 447.5 237 L 437.5 237 L 433.5 239 L 417.5 239 L 416.5 238 Q 413.25 238.75 412.5 237 L 404.5 237 L 398.5 233 L 392 226.5 L 391 224.5 L 391 221.5 L 388 216.5 L 388 211.5 L 387 210.5 L 387 203.5 L 388 202.5 L 388 197.5 L 391 191.5 L 391 184.5 Q 392.5 184 392 181.5 L 394 179.5 L 396 173.5 L 403 165.5 L 403 164 L 404.5 164 L 409.5 159 L 411.5 159 L 415.5 155 L 419.5 155 L 420.5 154 L 422.5 154 L 425.5 152 Q 428.75 152.75 429.5 151 Z M 433 155 L 429 157 L 425 157 L 424 158 L 422 157 L 418 158 L 415 161 Q 412 161 412 162 Q 409 161 410 164 L 404 169 Q 405 171 402 170 Q 402 175 398 178 Q 399 180 397 181 L 397 185 L 394 189 L 394 196 L 393 197 L 393 206 L 392 207 L 393 209 L 393 219 Q 395 219 394 223 L 397 226 L 397 227 L 407 234 L 420 234 L 421 235 L 432 235 L 433 234 L 445 234 L 446 233 Q 448 234 447 231 L 453 230 L 463 221 Q 462 217 465 218 L 466 217 L 466 214 Q 468 213 467 211 L 470 208 L 470 201 L 471 200 L 471 195 L 473 192 Q 472 187 474 187 L 474 182 Q 472 181 473 177 L 471 174 L 471 168 L 468 165 L 468 164 L 461 157 Q 458 157 458 158 L 456 157 L 452 157 L 451 156 L 448 156 L 447 155 L 433 155 Z " /><path fill="rgb(245,245,245)" stroke="rgb(245,245,245)" stroke-width="0" opacity="1" d="M 488.5 151 L 536.5 151 L 543.5 155 L 546.5 155 L 549 157.5 L 549 158.5 L 553 162.5 Q 552.25 165.75 554 166.5 L 554 178.5 L 553 179.5 L 553 182.5 Q 551.5 183 552 185.5 L 549 191.5 L 543.5 197 L 541 198.5 L 539.5 201 L 537.5 201 L 530.5 205 L 504.5 205 L 502.5 206 Q 501.75 204.25 498.5 205 L 497 206.5 L 497 212.5 L 496 213.5 L 496 218.5 L 495 219.5 Q 495.75 222.75 494 223.5 L 494 227.5 L 493 228.5 L 493 234.5 L 490.5 238 L 488.5 239 L 473.5 239 L 471 235.5 L 471 231.5 L 472 230.5 L 472 225.5 L 473 224.5 Q 472.5 222 474 221.5 L 474 217.5 L 475 216.5 L 475 211.5 L 476 210.5 L 476 204.5 Q 478 203.5 477 199.5 L 479 195.5 L 479 189.5 L 480 188.5 L 480 183.5 L 481 182.5 Q 480.25 179.25 482 178.5 L 482 172.5 L 483 171.5 L 483 162.5 L 486 156.5 L 486 154.5 L 488.5 151 Z M 490 154 L 489 157 L 489 162 L 486 167 L 486 177 Q 484 178 486 179 Q 484 181 485 186 L 483 188 Q 484 190 482 191 L 482 203 L 481 204 L 481 209 Q 480 209 480 212 L 478 215 L 478 224 L 477 225 L 477 231 L 475 234 L 477 235 L 488 235 L 490 233 L 490 225 L 491 224 L 490 222 Q 492 219 491 213 L 494 208 L 494 205 L 497 202 L 529 202 L 532 199 L 533 199 Q 534 197 535 199 L 537 199 L 541 195 L 542 195 L 543 193 Q 544 191 546 191 L 547 189 L 547 186 L 550 183 L 550 170 L 551 169 Q 550 168 550 166 L 547 163 L 546 160 L 545 158 Q 541 159 541 157 L 537 157 L 533 155 L 495 155 L 494 154 L 490 154 Z " /><path fill="rgb(245,245,245)" stroke="rgb(245,245,245)" stroke-width="0" opacity="1" d="M 564.5 151 L 605.5 151 Q 606.25 152.75 609.5 152 L 614.5 155 L 618.5 155 L 620 156.5 L 621.5 159 L 625 161.5 L 625 162.5 L 629 166.5 L 629 169.5 L 630 170.5 Q 629.25 173.75 631 174.5 L 631 192.5 L 630 193.5 Q 630.75 196.75 629 197.5 L 629 203.5 Q 627.5 204 628 206.5 L 625 210.5 L 625 214.5 Q 621.35 216.35 621 221.5 L 613.5 229 Q 611.25 228.25 612 230.5 L 610.5 232 L 605.5 233 L 604 234.5 Q 604.75 236.75 602.5 236 L 601.5 237 L 591.5 237 L 587.5 239 L 548 239 L 547 236.5 L 547 225.5 L 548 224.5 L 548 220.5 L 550 217.5 Q 549.25 214.25 551 213.5 L 551 203.5 L 552 202.5 L 552 197.5 L 554 193.5 L 554 189.5 L 555 188.5 Q 554 184.5 556 183.5 L 556 175.5 L 558 171.5 L 558 166.5 L 559 165.5 L 559 158.5 Q 560.75 157.75 560 154.5 L 562.5 152 L 564.5 151 Z M 567 154 L 565 156 L 565 159 L 563 161 Q 564 163 562 164 L 562 175 L 561 176 L 561 181 L 558 187 L 558 196 L 557 197 L 557 204 L 554 211 L 554 218 L 553 219 L 553 225 Q 551 225 552 229 L 550 231 L 550 235 L 554 235 L 555 234 L 557 235 L 585 235 L 586 234 L 588 235 L 589 234 L 599 234 L 603 231 L 607 230 L 611 226 L 612 226 L 622 213 Q 621 208 623 208 Q 622 204 625 205 L 626 203 L 626 190 L 627 189 L 627 178 L 626 177 Q 626 174 627 174 L 626 169 Q 622 166 622 162 L 620 161 Q 617 162 618 160 L 617 158 Q 613 159 613 157 L 606 157 L 602 155 L 571 155 Q 570 153 567 154 Z " /><path fill="rgb(245,245,245)" stroke="rgb(245,245,245)" stroke-width="0" opacity="1" d="M 643.5 151 L 658.5 151 L 661 153.5 L 661 162.5 L 660 163.5 L 659 170.5 L 657 174.5 L 657 180.5 L 656 181.5 L 656 187.5 L 655 188.5 L 655 192.5 L 654 193.5 Q 655 197.5 653 198.5 L 653 206.5 L 652 207.5 L 652 210.5 L 650 214.5 L 650 219.5 L 649 220.5 L 649 227.5 Q 647 228.5 648 232.5 Q 646.5 233 647 235.5 L 643.5 239 Q 641 238.5 640.5 240 L 639.5 239 L 628 239 L 627 236.5 L 627 222.5 L 630 216.5 Q 629 212.5 631 211.5 L 631 206.5 L 632 205.5 L 632 196.5 L 633 195.5 Q 632.5 193 634 192.5 L 634 189.5 L 635 188.5 L 635 182.5 L 636 181.5 L 636 175.5 L 637 174.5 Q 636.25 171.25 638 170.5 L 638 165.5 L 639 164.5 L 639 157.5 Q 640.75 156.75 640 153.5 L 641.5 152 L 643.5 151 Z M 647 154 L 644 157 L 644 159 L 642 162 L 642 169 L 641 170 L 642 172 L 641 173 L 641 180 L 638 186 L 638 195 L 637 196 L 637 202 L 634 209 L 634 218 L 633 219 L 633 224 L 630 231 L 630 235 L 634 235 L 635 234 L 642 235 L 644 233 Q 643 228 646 228 L 646 213 Q 648 211 647 208 L 650 203 L 650 193 L 651 192 L 651 185 L 654 179 L 654 170 L 655 169 L 655 162 L 656 161 L 657 157 Q 659 155 657 154 Q 654 154 654 155 L 647 154 Z " /><path fill="rgb(245,245,245)" stroke="rgb(245,245,245)" stroke-width="0" opacity="1" d="M 687.5 151 L 740.5 151 L 743 153.5 L 742 157.5 L 741 158.5 L 741 163.5 L 740 164.5 L 740 170.5 L 738.5 172 L 736.5 173 L 688.5 173 Q 687.5 171 686.5 173 L 685.5 173 L 681 177.5 Q 680 182 682.5 183 L 684.5 184 L 713.5 184 L 719.5 187 L 722.5 187 L 729 192.5 L 733 198.5 L 733 210.5 L 732 211.5 L 732 215.5 L 730 218.5 L 729 223.5 L 725 227.5 Q 724.63 230.63 722.5 232 L 717 234 Q 718.13 236.67 715.5 236 L 714.5 237 L 706.5 237 L 702.5 239 L 657.5 239 L 655.5 240 Q 655 238.5 652.5 239 L 651 237.5 L 651 230.5 L 652 229.5 L 652 222.5 L 654.5 219 L 706.5 219 L 708 217.5 Q 707.25 215.25 709.5 216 L 711 214.5 L 711 207.5 L 708.5 205 L 675.5 205 L 671.5 202 L 668.5 201 L 663 195.5 L 660 189.5 L 660 178.5 L 663 171.5 L 663 168.5 L 667 164.5 L 667 162.5 L 669.5 160 L 670.5 160 L 674.5 156 L 678.5 155 L 679.5 154 L 681.5 154 L 687.5 151 Z M 736 154 L 735 155 L 692 155 L 691 156 L 688 156 Q 687 158 685 157 L 684 158 L 682 157 L 679 157 Q 675 158 676 161 L 673 162 L 668 169 Q 665 168 666 172 Q 664 173 666 174 Q 667 176 665 177 L 665 194 L 668 195 L 669 198 Q 670 200 675 199 L 678 202 L 711 202 L 713 203 Q 715 204 714 207 L 716 209 L 716 212 L 714 215 L 714 217 L 709 222 L 658 222 L 656 224 Q 656 226 657 227 L 654 232 L 654 235 L 658 235 L 659 234 Q 661 234 662 235 L 700 235 L 701 234 L 713 234 Q 714 231 719 230 L 723 226 L 723 224 Q 726 225 727 222 Q 728 218 726 218 L 727 215 L 730 211 L 730 202 L 727 199 L 727 195 L 721 190 Q 717 191 717 189 L 685 189 L 678 185 L 678 176 L 679 174 L 683 170 L 687 169 L 688 168 L 736 168 L 737 167 Q 737 164 738 164 Q 737 158 739 156 Q 739 154 736 154 Z " /><path fill="rgb(245,245,245)" stroke="rgb(245,245,245)" stroke-width="0" opacity="1" d="M 749.5 151 L 763.5 151 L 765 152.5 L 765 169.5 L 763 172.5 L 763 174 L 767.5 174 L 770.5 171 L 773.5 171 L 780.5 167 L 783.5 167 L 789.5 163 L 793.5 163 L 796 162 Q 794.88 159.33 797.5 160 L 798.5 159 L 803.5 159 L 808.5 155 L 812.5 155 L 816.5 152 L 818.5 152 L 821 155.5 L 821 157.5 L 820 158.5 L 820 162.5 L 817 169.5 L 817 173.5 L 816 176 L 813.5 177 L 808.5 177 L 803.5 181 L 798.5 181 L 791.5 185 L 788.5 185 L 781.5 189 L 777.5 189 L 771.5 193 L 765.5 193 L 764 194.5 L 764 195.5 L 767.5 199 L 772.5 199 L 777.5 203 L 780.5 203 L 786.5 207 L 789.5 207 L 795.5 211 L 798.5 211 L 803.5 215 Q 808 214 809 216.5 L 809 223.5 Q 807.5 224 808 226.5 L 806 228.5 Q 806.5 231 805 231.5 L 805 235.5 L 803.5 237 L 797.5 237 L 794.5 234 L 792.5 233 L 789.5 233 L 784.5 229 L 782.5 229 L 776.5 225 L 773.5 225 L 769.5 221 L 765.5 221 L 761.5 217 L 756.5 217 L 755 218.5 Q 755.75 221.75 754 222.5 Q 755 226.5 753 227.5 L 753 234.5 L 750.5 238 L 748.5 239 L 733.5 239 L 731 235.5 L 731 230.5 L 732 229.5 L 732 225.5 L 734 221.5 Q 733.25 218.25 735 217.5 L 735 213.5 L 736 212.5 L 736 205.5 L 737 204.5 Q 736 200.5 738 199.5 L 738 194.5 L 739 193.5 L 739 185.5 Q 740.75 184.75 740 181.5 L 742 178.5 L 742 173.5 L 743 172.5 L 743 164.5 Q 745 163.5 744 159.5 L 747 152 L 749.5 151 Z M 750 154 L 749 157 L 749 161 L 746 165 L 746 180 L 745 181 L 745 186 L 742 190 L 742 201 L 741 202 L 741 209 L 738 214 L 738 223 L 737 224 L 737 230 L 735 233 L 737 235 L 747 235 L 749 234 L 750 232 L 750 220 L 751 219 L 751 213 L 753 211 L 757 211 L 761 214 L 765 215 L 768 218 L 771 218 Q 771 220 774 219 L 777 222 L 779 223 L 782 223 L 787 227 L 790 227 L 793 230 L 796 230 L 801 235 L 803 233 L 802 231 L 803 224 Q 804 222 806 222 L 807 220 L 806 217 L 803 217 L 802 218 L 801 218 L 797 214 Q 794 215 794 213 L 790 213 Q 788 212 788 210 Q 785 211 785 209 L 782 209 L 779 206 L 776 206 Q 775 205 773 205 L 770 202 L 766 202 L 763 201 L 763 200 L 759 196 L 759 191 L 768 190 L 772 187 L 776 187 Q 776 186 779 186 L 782 183 Q 784 184 785 182 L 791 182 Q 791 182 791 181 L 793 179 Q 796 180 797 178 L 802 178 L 807 174 L 812 174 L 814 172 Q 814 169 815 169 Q 816 166 814 166 L 814 163 L 816 160 L 816 158 L 814 157 Q 811 157 811 158 Q 808 157 809 160 L 808 161 Q 805 161 805 162 L 802 162 L 801 163 Q 798 162 799 165 Q 796 164 796 166 L 793 166 L 790 169 L 787 169 Q 786 171 784 170 L 780 173 Q 775 172 775 174 Q 771 173 772 176 L 771 177 Q 766 176 766 178 Q 760 179 759 177 L 759 170 L 761 167 Q 760 162 762 162 L 762 154 L 759 154 L 758 155 L 755 155 L 754 154 L 750 154 Z " /><path fill="rgb(245,245,245)" stroke="rgb(245,245,245)" stroke-width="0" opacity="1" d="M 280.5 159 L 280.5 160 L 280.5 159 Z " /><path fill="rgb(245,245,245)" stroke="rgb(245,245,245)" stroke-width="0" opacity="1" d="M 427.5 168 L 446.5 168 L 449.5 170 L 453.5 171 L 457 174.5 L 458 178.5 L 461 183.5 L 461 189.5 L 458 196.5 L 458 201.5 Q 456.25 202.25 457 205.5 L 454 209.5 L 454 211.5 L 448.5 217 L 446.5 217 L 444 219.5 Q 444.75 221.75 442.5 221 L 441.5 222 L 415.5 222 L 408.5 216 L 407 216 Q 407.75 213.42 406 212.5 L 406 191.5 Q 407.75 190.75 407 187.5 L 410 184.5 L 410 181.5 L 411 179.5 L 419.5 171 L 421.5 170 L 424.5 170 L 427.5 168 Z M 423 173 L 419 177 L 417 177 Q 417 181 413 184 L 413 188 L 411 191 Q 412 193 410 194 L 410 198 L 409 199 L 409 209 Q 411 209 410 212 L 412 214 L 412 215 L 414 215 L 418 219 L 440 219 L 441 218 Q 443 219 442 216 Q 446 216 448 213 Q 447 210 450 211 L 451 210 L 451 207 Q 453 206 452 204 L 455 199 L 455 179 L 452 176 L 452 175 L 451 173 L 423 173 Z " /><path fill="rgb(245,245,245)" stroke="rgb(245,245,245)" stroke-width="0" opacity="1" d="M 503.5 168 L 529.5 168 L 533.5 170 L 537 173.5 L 537 180.5 L 531.5 187 Q 528 186.5 527.5 189 L 499.5 189 L 498 187.5 L 498 177.5 L 499 176.5 Q 497 175.5 499 174.5 Q 498.25 169.75 501.5 169 L 503.5 168 Z M 508 172 Q 507 174 505 173 L 503 175 L 502 179 L 501 180 Q 500 183 503 184 L 529 184 L 531 183 L 532 181 L 532 179 L 533 178 Q 532 177 532 175 L 530 173 Q 529 171 528 173 L 509 173 L 508 172 Z " /><path fill="rgb(245,245,245)" stroke="rgb(245,245,245)" stroke-width="0" opacity="1" d="M 577.5 168 L 600.5 168 L 603.5 170 L 606.5 170 L 609 171 L 609 172.5 L 614 178.5 L 614 195.5 Q 612 196.5 613 200.5 L 610 204.5 L 610 208.5 L 607.5 212 Q 605.25 211.25 606 213.5 L 603.5 217 L 600.5 218 L 595.5 222 L 568.5 222 L 566 218.5 L 566 215.5 L 567 214.5 L 567 208.5 L 570 203.5 L 570 195.5 L 571 194.5 L 570 192.5 L 571 191.5 L 571 185.5 L 574 179.5 L 574 172.5 L 577.5 168 Z M 578 173 L 577 176 L 577 185 L 576 186 L 576 191 Q 574 191 575 195 L 574 196 L 574 200 L 573 201 L 573 209 Q 571 209 572 213 L 570 216 L 570 219 L 594 219 L 595 218 Q 597 219 596 216 L 599 215 L 601 215 L 607 207 L 607 201 L 610 195 L 610 192 L 611 191 L 611 183 L 607 175 L 606 173 L 578 173 Z " /><path fill="rgb(245,245,245)" stroke="rgb(245,245,245)" stroke-width="0" opacity="1" d="M 808.5 168 L 808.5 169 L 808.5 168 Z " /><path fill="rgb(245,245,245)" stroke="rgb(245,245,245)" stroke-width="0" opacity="1" d="M 671.5 192 L 671.5 193 L 671.5 192 Z " /><path fill="rgb(245,245,245)" stroke="rgb(245,245,245)" stroke-width="0" opacity="1" d="M 325.5 248 L 329.5 248 Q 330 249.5 332.5 249 L 336 252.5 Q 337.5 258 341 261.5 L 341 263.5 L 342.5 265 L 343.5 265 L 347 261.5 Q 346.25 259.25 348.5 260 L 353.5 254 Q 355.75 254.75 355 252.5 L 357.5 250 L 361.5 248 L 366.5 248 L 369 249 L 370 251.5 L 370 254.5 L 369 255.5 L 369 264.5 L 368 265.5 Q 368.75 268.75 367 269.5 L 367 273.5 L 363.5 277 Q 356.5 278.5 355 274.5 L 355 270.5 L 357 266.5 L 357 262.5 Q 356.25 261.25 355.5 263 Q 353.25 262.25 354 264.5 L 347.5 272 L 345 273.5 L 343.5 276 L 340.5 277 Q 340 275.5 337.5 276 L 336 274.5 L 335 270.5 L 331 264.5 L 331 262 L 328 262 L 328 264.5 L 327 265.5 Q 327.75 268.75 326 269.5 L 326 274.5 L 323.5 277 Q 318 278 317 274.5 L 317 271.5 L 318 270.5 Q 317.25 267.25 319 266.5 L 319 258.5 Q 320.75 257.75 320 254.5 L 323.5 249 L 325.5 248 Z M 327 253 L 325 255 L 325 257 L 331 257 L 333 260 L 334 264 L 337 268 L 338 271 L 342 273 L 343 271 L 341 269 L 339 268 L 338 264 L 335 260 L 334 257 L 330 253 L 327 253 Z M 358 253 L 358 256 L 361 256 L 362 259 L 362 265 L 361 266 L 361 270 L 360 272 Q 358 273 361 274 L 363 272 L 363 269 L 366 263 L 366 258 Q 368 257 367 255 L 366 253 L 358 253 Z M 324 261 L 321 267 L 321 273 Q 321 274 323 273 L 323 268 L 324 267 L 324 261 Z M 346 267 L 346 268 L 346 267 Z " /><path fill="rgb(245,245,245)" stroke="rgb(245,245,245)" stroke-width="0" opacity="1" d="M 653.5 248 L 656.5 248 L 659 249 L 660 251.5 L 660 255.5 L 659 256.5 Q 659.5 259 658 259.5 L 658 262.5 L 657 263.5 L 657 276 L 654.5 277 L 650.5 277 L 646.5 275 L 643.5 277 L 633.5 277 L 627 271.5 L 627 262.5 L 628 260 Q 633.05 259.45 635.5 255 L 647.5 255 L 649 253.5 Q 649.38 250.38 651.5 249 L 653.5 248 Z M 653 253 L 652 256 L 652 258 L 651 259 L 651 264 Q 649 265 650 269 L 649 270 L 651 272 Q 650 274 653 273 L 653 268 L 654 267 L 654 259 L 656 255 Q 655 252 653 253 Z M 640 257 L 637 259 L 645 259 L 645 257 L 640 257 Z M 633 261 Q 628 263 630 270 Q 631 272 633 271 L 633 265 L 635 262 L 633 261 Z M 643 261 L 642 262 L 638 262 L 637 265 L 637 270 L 640 271 Q 642 272 643 270 Q 645 271 644 268 L 646 268 Q 648 267 647 263 Q 646 260 643 261 Z " /><path fill="rgb(245,245,245)" stroke="rgb(245,245,245)" stroke-width="0" opacity="1" d="M 685.5 248 L 690.5 248 L 696 252.5 L 697 256.5 L 700 259.5 L 701 263.5 L 702.5 265 L 703.5 265 L 707 261.5 Q 706.25 259.25 708.5 260 L 717.5 250 L 721.5 248 L 726.5 248 L 729 249 L 730 251.5 L 730 254.5 L 729 255.5 L 729 263.5 L 728 264.5 L 727 271.5 Q 725.5 272 726 274.5 L 724.5 276 Q 722.33 277.83 717.5 277 Q 714 276 715 270.5 L 717 266.5 L 717 262.5 Q 716.25 261.25 715.5 263 Q 713.25 262.25 714 264.5 L 708 270.5 L 708 272 Q 705.88 271.5 705 273.5 L 703.5 276 L 700.5 277 Q 700 275.5 697.5 276 L 696 274.5 Q 695.18 269.82 692 267.5 L 691 262 L 688 262 L 688 264.5 L 686 268.5 L 686 273.5 L 683.5 277 L 679.5 277 L 677 276 L 677 271.5 L 678 270.5 L 678 266.5 L 679 265.5 L 679 257.5 L 680 256.5 L 680 253.5 L 681 251.5 L 683.5 249 L 685.5 248 Z M 687 253 L 685 255 L 685 257 L 691 257 L 693 260 L 694 264 L 697 268 L 698 271 L 702 273 L 703 271 L 701 269 L 699 268 L 698 264 L 695 260 L 694 257 L 690 253 L 687 253 Z M 718 253 L 718 256 Q 721 255 722 258 L 722 265 Q 720 265 721 269 L 719 272 L 721 274 L 723 272 L 723 268 L 726 263 L 726 258 Q 728 257 727 255 L 726 253 L 718 253 Z M 715 258 L 715 259 L 715 258 Z M 684 261 L 682 263 Q 683 266 681 268 L 682 273 L 683 272 L 683 267 L 684 266 L 684 261 Z M 706 267 L 706 268 L 706 267 Z " /><path fill="rgb(245,245,245)" stroke="rgb(245,245,245)" stroke-width="0" opacity="1" d="M 382.5 255 L 397.5 255 L 402 259.5 L 403 263.5 L 399 266.5 Q 398.5 269 400 269.5 L 400 272.5 L 396.5 277 L 381.5 277 L 373 270.5 L 372 268.5 L 372 264.5 L 376.5 259 L 378.5 259 L 382.5 255 Z M 385 257 L 385 259 L 394 259 L 396 260 Q 395 262 398 263 L 399 263 L 399 260 L 398 260 L 394 257 L 385 257 Z M 380 261 L 376 266 L 376 269 L 379 271 L 380 270 L 379 268 L 381 264 L 380 261 Z M 387 261 Q 384 263 387 264 L 390 264 L 392 263 Q 391 260 387 261 Z M 387 268 Q 385 269 385 271 L 394 271 L 395 270 L 391 269 L 390 268 L 387 268 Z " /><path fill="rgb(245,245,245)" stroke="rgb(245,245,245)" stroke-width="0" opacity="1" d="M 408.5 255 Q 414.67 253.83 417.5 256 L 418.5 255 L 428.5 255 L 431.5 258 L 432.5 258 L 435.5 255 L 446.5 255 L 449 257.5 L 449 260.5 L 450 262.5 L 449 263.5 L 449 273.5 L 448 276 L 445.5 277 L 439.5 277 L 437 274.5 L 437 272.5 L 438 271.5 L 438 266.5 Q 439.75 265.75 439 262.5 Q 438.5 260.5 435.5 261 L 434 262.5 L 434 264.5 L 432 268.5 L 432 271.5 Q 430.5 272 431 274.5 L 429.5 276 L 427.5 277 L 423.5 277 L 421 276 L 420 273.5 L 422 270.5 L 422 265.5 Q 423.5 265 423 262.5 Q 421.81 260 418 261 L 417 263.5 L 417 265.5 L 415 268.5 L 415 273.5 L 414 276 L 411.5 277 L 405.5 277 Q 403 276 404 271.5 L 406 268.5 Q 405.25 265.25 407 264.5 L 407 256.5 L 408.5 255 Z M 422 257 L 422 259 L 426 262 L 426 267 L 425 268 L 425 273 Q 425 274 427 273 L 428 272 L 428 268 L 430 265 L 430 262 L 426 257 L 422 257 Z M 438 257 L 438 259 L 442 260 L 443 263 Q 441 265 442 271 L 441 272 Q 442 274 445 273 L 445 270 L 446 269 L 446 260 L 445 258 Q 442 259 442 257 L 438 257 Z M 410 258 L 410 266 Q 408 266 409 271 L 408 272 Q 407 274 410 273 L 411 272 L 411 269 Q 413 268 412 266 L 414 263 L 414 258 L 410 258 Z " /><path fill="rgb(245,245,245)" stroke="rgb(245,245,245)" stroke-width="0" opacity="1" d="M 462.5 255 L 476.5 255 L 484 261.5 L 484 266.5 L 482 270.5 L 479.5 273 L 473.5 277 L 460.5 277 L 453 270.5 L 452 266.5 L 453 265.5 L 454 261.5 L 456.5 259 L 460 258 Q 458.88 255.33 461.5 256 L 462.5 255 Z M 466 257 Q 463 258 465 259 L 475 259 L 475 259 L 474 257 L 466 257 Z M 460 261 L 456 266 L 456 269 Q 457 272 460 271 L 459 269 Q 458 264 461 263 Q 462 260 460 261 Z M 467 261 L 463 266 L 463 269 L 467 271 L 470 271 L 474 266 L 474 264 L 473 262 Q 470 263 470 261 L 467 261 Z M 477 261 L 477 268 L 476 269 L 477 271 Q 481 269 481 264 Q 480 261 477 261 Z " /><path fill="rgb(245,245,245)" stroke="rgb(245,245,245)" stroke-width="0" opacity="1" d="M 491.5 255 L 510.5 255 L 512 256.5 L 513 258.5 L 512 261 L 502.5 261 L 500 263.5 L 498 266.5 L 498 270.5 Q 496.25 271.25 497 274.5 L 494.5 277 Q 488.25 278.25 487 274.5 L 487 268.5 L 488 267.5 L 488 262.5 Q 490 261.5 489 257.5 L 491.5 255 Z M 504 257 L 504 259 L 507 259 L 507 257 L 504 257 Z M 493 258 L 493 265 L 491 267 L 491 271 L 490 273 L 493 274 L 494 273 L 494 268 Q 496 267 495 265 L 497 263 L 497 260 Q 496 257 493 258 Z " /><path fill="rgb(245,245,245)" stroke="rgb(245,245,245)" stroke-width="0" opacity="1" d="M 516.5 255 Q 523.5 253.5 525 257.5 L 525 261.5 L 524 262.5 L 524 265.5 Q 522.25 266.42 523 269 L 525.5 269 Q 526.5 266.5 529 267 L 530 264.5 L 530 262.5 L 531 261.5 L 531 256.5 L 532.5 255 L 539.5 255 L 541 256.5 L 541 264.5 L 540 265.5 L 540 270.5 L 538 273.5 L 537 278.5 L 534.5 281 L 529.5 282 L 526.5 284 L 519.5 284 L 516.5 282 L 512.5 281 L 511 279.5 L 511 277.5 L 513.5 275 L 515 275 L 515 272 Q 512.87 272.5 512 270.5 L 512 265.5 L 513 264.5 L 514 257.5 L 516.5 255 Z M 519 257 L 517 259 Q 516 262 518 263 L 517 267 L 516 268 L 516 270 Q 517 272 519 271 L 519 264 Q 522 262 522 259 Q 522 257 519 257 Z M 536 257 L 534 259 L 534 265 L 533 266 Q 534 269 531 268 L 532 276 Q 530 276 529 278 L 532 279 L 535 275 L 535 268 Q 537 267 536 264 L 538 261 L 538 259 L 536 257 Z M 522 277 L 520 279 Q 521 281 524 280 L 524 277 L 522 277 Z " /><path fill="rgb(245,245,245)" stroke="rgb(245,245,245)" stroke-width="0" opacity="1" d="M 568.5 255 L 588.5 255 L 591 257.5 Q 591.5 260 590 260.5 L 590 266.5 Q 588.25 267.25 589 270.5 Q 590.75 271.25 590 274.5 Q 589 278 583.5 277 L 580.5 275 L 576.5 277 L 566.5 277 L 559 270.5 L 559 263.5 L 562.5 259 Q 566.75 258.25 568.5 255 Z M 572 257 L 570 259 L 578 259 Q 579 257 578 257 L 572 257 Z M 584 258 L 584 264 L 582 267 L 582 271 Q 583 274 586 273 L 586 263 L 587 262 L 587 258 L 584 258 Z M 566 261 L 562 265 L 562 270 Q 564 272 567 272 L 566 270 Q 565 266 567 265 L 567 261 L 566 261 Z M 575 261 Q 574 263 572 262 L 569 266 Q 568 270 572 271 L 576 270 L 579 267 Q 578 263 580 263 L 578 261 L 575 261 Z " /><path fill="rgb(245,245,245)" stroke="rgb(245,245,245)" stroke-width="0" opacity="1" d="M 598.5 255 L 603.5 255 L 606.5 257 L 608.5 255 L 619.5 255 L 623 260.5 L 623 264.5 L 622 265.5 L 621 274.5 L 618.5 277 L 613.5 277 L 611 276 L 611 266.5 L 613 263.5 L 613 262 L 609.5 261 L 605 266.5 L 605 274.5 L 602.5 277 Q 595.5 278.5 594 274.5 Q 593.25 271.25 595 270.5 L 595 264.5 L 596 263.5 L 596 258.5 L 598.5 255 Z M 613 257 L 611 259 Q 616 259 617 263 L 616 267 L 615 268 L 615 272 L 614 273 L 617 274 L 618 273 L 618 267 L 619 266 L 619 260 L 617 257 L 615 257 Q 614 259 613 257 Z M 600 258 Q 599 261 601 262 Q 602 265 599 266 L 598 273 Q 599 275 601 274 L 602 272 L 602 264 Q 604 263 604 260 Q 603 257 600 258 Z " /><path fill="rgb(245,245,245)" stroke="rgb(245,245,245)" stroke-width="0" opacity="1" d="M 741.5 255 L 755.5 255 L 763 261.5 L 764 265.5 L 761 270.5 L 761 272 Q 755.95 272.55 753.5 277 L 740.5 277 L 737.5 275 L 736 275 Q 737.12 272.33 734.5 273 L 732 269.5 L 732 264.5 L 736.5 259 L 737.5 259 L 741.5 255 Z M 746 257 L 744 258 L 744 259 L 755 259 L 755 259 Q 752 256 746 257 Z M 740 261 L 737 262 L 737 264 L 735 267 L 736 270 Q 737 272 739 271 L 739 268 L 738 267 L 741 262 L 740 261 Z M 747 261 L 744 262 Q 745 264 742 266 L 742 269 L 744 270 Q 746 270 747 271 L 749 271 L 751 270 L 751 269 L 753 266 L 753 264 L 750 261 L 747 261 Z M 758 261 L 757 267 L 755 270 Q 754 272 757 271 L 759 269 Q 759 266 760 266 L 760 264 L 758 261 Z " /><path fill="rgb(245,245,245)" stroke="rgb(245,245,245)" stroke-width="0" opacity="1" d="M 771.5 255 L 777.5 255 L 778.5 256 L 779.5 255 L 789.5 255 Q 792.5 256.12 792 259 L 796.5 259 L 798 257.5 Q 797.25 255.25 799.5 256 L 800.5 255 L 814.5 255 L 818.5 259 L 820 259 L 821 262.5 L 820 265 L 816 266 L 816 268.5 L 818 271.5 Q 816.5 272 817 274.5 L 814.5 277 L 798.5 277 L 796 276 Q 797.13 273.33 794.5 274 L 790 268.5 L 790 264.5 Q 791.75 263.58 791 261 L 782.5 261 L 780 263.5 L 780 264.5 L 777 267.5 L 777 274.5 L 774.5 277 Q 768.25 278.25 767 274.5 L 767 266.5 L 768 265.5 L 768 258.5 L 769 256 L 771.5 255 Z M 783 257 L 783 259 L 787 259 L 787 257 L 783 257 Z M 803 257 Q 802 259 804 259 L 812 259 Q 815 260 814 263 Q 816 264 817 262 L 812 257 L 803 257 Z M 772 258 Q 771 261 773 262 L 771 265 L 771 269 Q 769 269 770 273 L 773 274 L 774 273 L 774 265 L 777 262 L 776 260 L 776 258 L 772 258 Z M 804 261 Q 801 263 804 264 Q 809 265 811 263 L 810 261 L 804 261 Z M 796 262 L 794 264 L 793 269 Q 794 272 797 271 L 797 266 L 798 265 Q 799 261 796 262 Z M 804 268 Q 802 269 802 271 L 811 271 L 812 270 L 808 269 L 807 268 L 804 268 Z " /></svg>